<svg width="60" height="60" viewBox="0 0 60 60" fill="none" xmlns="http://www.w3.org/2000/svg">
<path d="M55.9723 11.1945C55.9665 9.2592 55.2076 7.40219 53.8564 6.01671C52.5053 4.63122 50.6679 3.82606 48.7333 3.77174C46.7988 3.71741 44.9191 4.4182 43.4923 5.72568C42.0655 7.03315 41.2037 8.84465 41.0893 10.7765L17.885 15.4166C17.3425 14.289 16.5245 13.3164 15.5065 12.5885C14.4886 11.8607 13.3037 11.4013 12.0612 11.2526C10.8187 11.1039 9.5588 11.2709 8.3979 11.738C7.23701 12.2051 6.2126 12.9573 5.41934 13.9251C4.62609 14.8929 4.08959 16.045 3.85944 17.275C3.62928 18.505 3.7129 19.7731 4.10255 20.9623C4.49221 22.1514 5.17533 23.2231 6.08878 24.0784C7.00224 24.9336 8.11654 25.5448 9.32871 25.8555V41.3113C8.05554 41.6375 6.89136 42.2949 5.95441 43.2166C5.01745 44.1383 4.34107 45.2915 3.99396 46.5592C3.64685 47.8268 3.64137 49.1638 3.97806 50.4342C4.31476 51.7047 4.98164 52.8634 5.91101 53.7928C6.84037 54.7221 7.9991 55.389 9.26956 55.7257C10.54 56.0624 11.8769 56.0569 13.1446 55.7098C14.4123 55.3627 15.5655 54.6863 16.4872 53.7494C17.4089 52.8124 18.0662 51.6482 18.3925 50.3751H33.8483C34.1585 51.588 34.7695 52.7032 35.6248 53.6175C36.4801 54.5318 37.5522 55.2156 38.7418 55.6058C39.9315 55.996 41.2003 56.0799 42.431 55.8498C43.6616 55.6197 44.8144 55.083 45.7827 54.2893C46.751 53.4956 47.5035 52.4706 47.9707 51.3091C48.4379 50.1475 48.6047 48.8869 48.4556 47.6438C48.3065 46.4007 47.8464 45.2153 47.1178 44.1971C46.3892 43.179 45.4156 42.361 44.2871 41.8188L48.9272 18.6145C50.8266 18.5103 52.6143 17.6837 53.924 16.3042C55.2338 14.9248 55.9666 13.0967 55.9723 11.1945ZM48.5093 7.46298C49.2473 7.46298 49.9688 7.68182 50.5824 8.09185C51.1961 8.50187 51.6743 9.08464 51.9568 9.76648C52.2392 10.4483 52.3131 11.1986 52.1691 11.9224C52.0251 12.6463 51.6697 13.3112 51.1479 13.833C50.626 14.3549 49.9611 14.7103 49.2373 14.8542C48.5135 14.9982 47.7632 14.9243 47.0813 14.6419C46.3995 14.3595 45.8167 13.8812 45.4067 13.2676C44.9967 12.6539 44.7778 11.9325 44.7778 11.1945C44.7778 10.2048 45.171 9.25569 45.8708 8.5559C46.5706 7.85611 47.5197 7.46298 48.5093 7.46298ZM7.46297 18.6574C7.46297 17.9194 7.68182 17.198 8.09184 16.5843C8.50186 15.9707 9.08464 15.4924 9.76648 15.21C10.4483 14.9276 11.1986 14.8537 11.9224 14.9976C12.6463 15.1416 13.3112 15.497 13.833 16.0189C14.3549 16.5407 14.7103 17.2056 14.8542 17.9295C14.9982 18.6533 14.9243 19.4036 14.6419 20.0854C14.3595 20.7673 13.8812 21.35 13.2676 21.7601C12.6539 22.1701 11.9325 22.3889 11.1945 22.3889C10.2048 22.3889 9.25569 21.9958 8.5559 21.296C7.85611 20.5962 7.46297 19.6471 7.46297 18.6574ZM11.1945 52.2408C10.4564 52.2408 9.73499 52.022 9.12135 51.6119C8.50771 51.2019 8.02944 50.6191 7.74701 49.9373C7.46458 49.2555 7.39069 48.5052 7.53467 47.7813C7.67865 47.0575 8.03404 46.3926 8.5559 45.8708C9.07775 45.3489 9.74264 44.9935 10.4665 44.8495C11.1903 44.7056 11.9406 44.7795 12.6224 45.0619C13.3043 45.3443 13.8871 45.8226 14.2971 46.4362C14.7071 47.0499 14.9259 47.7713 14.9259 48.5093C14.9259 49.499 14.5328 50.4481 13.833 51.1479C13.1332 51.8477 12.1841 52.2408 11.1945 52.2408ZM33.8483 46.6436H18.3925C18.0572 45.3614 17.3865 44.1915 16.4494 43.2544C15.5122 42.3172 14.3424 41.6466 13.0602 41.3113V25.8555C14.5842 25.4582 15.9429 24.5878 16.9409 23.3695C17.939 22.1512 18.5249 20.6477 18.6145 19.0754L41.8188 14.4353C42.5494 15.9399 43.7643 17.1554 45.2685 17.8869L40.6284 41.0893C39.0561 41.1788 37.5526 41.7648 36.3343 42.7628C35.116 43.7609 34.2456 45.1196 33.8483 46.6436ZM41.0463 52.2408C40.3083 52.2408 39.5869 52.022 38.9732 51.6119C38.3596 51.2019 37.8813 50.6191 37.5989 49.9373C37.3165 49.2555 37.2426 48.5052 37.3866 47.7813C37.5305 47.0575 37.8859 46.3926 38.4078 45.8708C38.9296 45.3489 39.5945 44.9935 40.3184 44.8495C41.0422 44.7056 41.7925 44.7795 42.4743 45.0619C43.1562 45.3443 43.7389 45.8226 44.149 46.4362C44.559 47.0499 44.7778 47.7713 44.7778 48.5093C44.7778 49.499 44.3847 50.4481 43.6849 51.1479C42.9851 51.8477 42.036 52.2408 41.0463 52.2408Z" fill="url(#paint0_linear_1_7176)"/>
<defs>
<linearGradient id="paint0_linear_1_7176" x1="29.8509" y1="3.7688" x2="29.8509" y2="55.9766" gradientUnits="userSpaceOnUse">
<stop stop-color="#FFC267"/>
<stop offset="1" stop-color="#99753E"/>
</linearGradient>
</defs>
</svg>
