<svg width="14" height="13" viewBox="0 0 14 13" fill="none" xmlns="http://www.w3.org/2000/svg">
<path d="M2.65223 0.197258C1.99626 0.742334 2.00797 0.67275 2.00797 4.70864V8.45459H1.59799C1.03572 8.45459 0.520317 8.73292 0.2509 9.18522C-0.0653726 9.6955 -0.0888002 11.841 0.215759 12.2817C0.731166 13.0124 0.309469 12.966 6.92776 12.966C13.4875 12.966 13.1595 13.0008 13.6281 12.3165C13.9092 11.8874 13.9326 9.78828 13.6632 9.2548C13.4172 8.80251 12.8315 8.45459 12.2927 8.45459H11.8476V4.70864C11.8476 1.28741 11.8241 0.951087 11.6367 0.649555C11.1799 -0.0230923 11.3087 0.000102043 6.92776 0.000102043C3.28477 0.000102043 2.86308 0.0116997 2.65223 0.197258ZM9.97335 5.09135V8.45459H6.92776H3.88218V5.09135V1.72811H6.92776H9.97335V5.09135ZM11.9647 10.7741V11.238H6.92776H1.89083V10.7741V10.3102H6.92776H11.9647V10.7741Z" fill="url(#paint0_linear_1_7209)"/>
<defs>
<linearGradient id="paint0_linear_1_7209" x1="6.92633" y1="12.9666" x2="6.92633" y2="5.72205e-06" gradientUnits="userSpaceOnUse">
<stop stop-color="#FFC267"/>
<stop offset="1" stop-color="#99753E"/>
</linearGradient>
</defs>
</svg>
