<svg width="69" height="58" viewBox="0 0 69 58" fill="none" xmlns="http://www.w3.org/2000/svg">
<path d="M31.0924 0.231972C24.943 1.5831 20.2999 6.21555 19.0838 12.1991C18.8212 13.4537 18.7936 14.0879 18.7936 18.3619V23.1322H10.6129C2.92959 23.1322 2.39066 23.1598 1.86554 23.3942C0.663304 23.9457 0 25.0486 0 26.4687C0 27.4889 0.317833 28.2472 0.981137 28.8814C1.65826 29.5156 2.32156 29.75 3.45471 29.75H4.42202V43.2613C4.42202 56.5934 4.42202 56.7726 4.6984 57.0484C4.97478 57.3241 5.15442 57.3241 34.2707 57.3241C63.387 57.3241 63.5666 57.3241 63.843 57.0484C64.1194 56.7726 64.1194 56.5934 64.1194 43.2613V29.75H65.0867C66.2198 29.75 66.8831 29.5156 67.5602 28.8814C68.2374 28.2334 68.5414 27.5027 68.5414 26.4411C68.5414 25.3795 68.2374 24.6488 67.5602 24.0008C66.6067 23.1047 66.8969 23.1322 57.9147 23.1322H49.7616L49.7063 17.9207C49.6649 13.1504 49.6372 12.6265 49.3608 11.6063C47.9237 6.10525 43.5431 1.74855 38.0847 0.356056C36.4402 -0.0575523 32.723 -0.126488 31.0924 0.231972ZM36.537 2.46547C41.3321 3.23755 45.533 7.00141 46.9149 11.7717C47.4262 13.5089 47.5368 15.3426 47.5368 21.7811V27.5441H34.2707H21.0046V21.7811C21.0046 15.5632 21.1152 13.564 21.5574 11.9785C22.5385 8.49041 24.8877 5.55377 28.0937 3.83039C30.7331 2.41032 33.4277 1.96914 36.537 2.46547ZM18.7936 26.4411V27.5441H11.1242C4.7675 27.5441 3.35797 27.5165 2.97105 27.3511C2.45975 27.1305 2.25247 26.6893 2.40448 26.0827C2.59794 25.3657 2.72231 25.352 11.0965 25.3382H18.7936V26.4411ZM65.5703 25.5312C66.0816 25.7518 66.2889 26.193 66.1369 26.7996C65.9434 27.5303 65.7914 27.5441 57.4172 27.5441H49.7478V26.4411V25.3382H57.4172C63.7739 25.3382 65.1834 25.3657 65.5703 25.5312ZM61.9083 42.4341V55.1182H60.8028H59.6973V51.3543C59.6973 47.1768 59.6559 46.9425 58.7162 46.0601C58.0667 45.4535 57.3758 45.1915 56.3808 45.1915C55.3859 45.1915 54.6949 45.4535 54.0454 46.0601C53.1058 46.9425 53.0643 47.1768 53.0643 51.3543V55.1182H51.9588H50.8533V51.3543C50.8533 47.1768 50.8118 46.9425 49.8721 46.0601C49.2227 45.4535 48.5317 45.1915 47.5368 45.1915C46.5418 45.1915 45.8509 45.4535 45.2014 46.0601C44.2617 46.9425 44.2202 47.1768 44.2202 51.3543V55.1182H43.1147H42.0092V50.4306C42.0092 45.9222 41.9954 45.7292 41.7329 45.4672C41.4703 45.2053 41.2768 45.1915 34.2707 45.1915C27.2645 45.1915 27.0711 45.2053 26.8085 45.4672C26.546 45.7292 26.5321 45.9222 26.5321 50.4306V55.1182H25.4266H24.3211V51.3957C24.3211 47.2733 24.2797 47.0528 23.4505 46.1704C22.8149 45.5086 22.0548 45.1915 21.0323 45.1915C20.0235 45.1915 19.3187 45.4535 18.6692 46.0601C17.7296 46.9425 17.6881 47.1768 17.6881 51.3543V55.1182H16.5826H15.4771V51.3543C15.4771 47.1768 15.4356 46.9425 14.4959 46.0601C13.8465 45.4535 13.1555 45.1915 12.1606 45.1915C11.1656 45.1915 10.4747 45.4535 9.82519 46.0601C8.88551 46.9425 8.84405 47.1768 8.84405 51.3543V55.1182H7.73854H6.63304V42.4341V29.75H34.2707H61.9083V42.4341ZM39.7982 51.2578V55.1182H34.2707H28.7432V51.2578V47.3974H34.2707H39.7982V51.2578ZM12.7133 47.6732C13.1832 47.9213 13.2661 48.5693 13.2661 51.892V55.1182H12.1606H11.0551V51.892C11.0551 48.6383 11.1242 48.0454 11.5664 47.7007C11.8427 47.5077 12.354 47.4802 12.7133 47.6732ZM21.5574 47.6732C22.0272 47.9213 22.1101 48.5693 22.1101 51.892V55.1182H21.0046H19.8991V51.892C19.8991 48.6383 19.9682 48.0454 20.4104 47.7007C20.6868 47.5077 21.1981 47.4802 21.5574 47.6732ZM48.0895 47.6732C48.5594 47.9213 48.6423 48.5693 48.6423 51.892V55.1182H47.5368H46.4313V51.892C46.4313 48.6383 46.5004 48.0454 46.9426 47.7007C47.2189 47.5077 47.7302 47.4802 48.0895 47.6732ZM56.9336 47.6732C57.4034 47.9213 57.4863 48.5693 57.4863 51.892V55.1182H56.3808H55.2753V51.892C55.2753 48.6383 55.3444 48.0454 55.7866 47.7007C56.063 47.5077 56.5743 47.4802 56.9336 47.6732Z" fill="url(#paint0_linear_1_7231)"/>
<defs>
<linearGradient id="paint0_linear_1_7231" x1="34.2707" y1="57.3241" x2="34.2707" y2="-1.52588e-05" gradientUnits="userSpaceOnUse">
<stop stop-color="#FFC267"/>
<stop offset="1" stop-color="#99753E"/>
</linearGradient>
</defs>
</svg>
